<?xml version="1.0" encoding="iso-8859-1"?>
<!-- Generator: Adobe Illustrator 19.0.0, SVG Export Plug-In . SVG Version: 6.00 Build 0)  -->
<svg xmlns="http://www.w3.org/2000/svg" xmlns:xlink="http://www.w3.org/1999/xlink" version="1.1" id="Layer_1" x="0px" y="0px" viewBox="0 0 420 420" style="enable-background:new 0 0 420 420;" xml:space="preserve" width="512px" height="512px">
<g id="XMLID_497_">
	<path id="XMLID_498_" d="M377.481,291.679c-2.781-4.174-7.465-6.68-12.48-6.68H253.027l-25-37.5L347.481,68.32   c4.596-6.893,2.733-16.205-4.16-20.801c-6.893-4.595-16.206-2.733-20.801,4.16L210,220.459L97.48,51.679   c-4.595-6.894-13.909-8.754-20.801-4.16c-6.894,4.596-8.756,13.908-4.161,20.801L191.973,247.5l80.552,120.827   c0.353,0.527,0.734,1.026,1.144,1.499c0.025,0.03,0.054,0.058,0.08,0.087c0.383,0.436,0.787,0.849,1.215,1.233   c0.055,0.049,0.113,0.095,0.17,0.144c0.406,0.355,0.828,0.691,1.269,0.999c0.069,0.049,0.142,0.094,0.213,0.141   c0.438,0.296,0.89,0.572,1.356,0.82c0.066,0.034,0.133,0.065,0.199,0.099c0.48,0.245,0.972,0.469,1.477,0.661   c0.049,0.02,0.099,0.034,0.147,0.053c0.522,0.193,1.056,0.361,1.601,0.496c0.031,0.008,0.065,0.014,0.096,0.022   c0.556,0.133,1.12,0.238,1.691,0.309c0.027,0.003,0.053,0.004,0.079,0.007c0.566,0.066,1.14,0.103,1.718,0.103   c0.012,0,0.023,0.003,0.035,0.003c0.014,0,0.027-0.002,0.041-0.002H405c5.531,0,10.615-3.045,13.226-7.922   c2.61-4.877,2.323-10.796-0.745-15.398L377.481,291.679z" fill="#e24527"/>
	<path id="XMLID_500_" d="M134.986,375.002c0.012,0,0.023-0.003,0.035-0.003c0.578-0.001,1.151-0.037,1.719-0.103   c0.025-0.003,0.051-0.004,0.077-0.007c0.573-0.07,1.138-0.176,1.694-0.31c0.031-0.007,0.063-0.013,0.092-0.021   c0.547-0.135,1.082-0.303,1.607-0.498c0.047-0.018,0.095-0.031,0.142-0.05c0.507-0.193,1-0.417,1.482-0.664   c0.064-0.033,0.13-0.063,0.193-0.097c0.469-0.248,0.92-0.525,1.361-0.821c0.07-0.048,0.141-0.091,0.209-0.139   c0.441-0.309,0.863-0.645,1.27-1c0.057-0.049,0.115-0.095,0.171-0.145c0.427-0.384,0.831-0.797,1.214-1.231   c0.026-0.03,0.055-0.058,0.082-0.088c0.41-0.475,0.794-0.977,1.146-1.506l40-60l4.491-6.738l-18.027-27.04L166.973,285H55   c-5.016,0-9.699,2.506-12.48,6.68l-40,60c-3.069,4.603-3.354,10.522-0.745,15.398C4.385,371.955,9.468,375,15,375h119.945   C134.959,375,134.973,375.002,134.986,375.002z" fill="#e24527"/>
</g>
<g>
</g>
<g>
</g>
<g>
</g>
<g>
</g>
<g>
</g>
<g>
</g>
<g>
</g>
<g>
</g>
<g>
</g>
<g>
</g>
<g>
</g>
<g>
</g>
<g>
</g>
<g>
</g>
<g>
</g>
</svg>
