<?xml version="1.0" encoding="iso-8859-1"?>
<!-- Generator: Adobe Illustrator 19.0.0, SVG Export Plug-In . SVG Version: 6.00 Build 0)  -->
<svg xmlns="http://www.w3.org/2000/svg" xmlns:xlink="http://www.w3.org/1999/xlink" version="1.1" id="Capa_1" x="0px" y="0px" viewBox="0 0 511.999 511.999" style="enable-background:new 0 0 511.999 511.999;" xml:space="preserve" width="512px" height="512px">
<g>
	<g>
		<path d="M377.856,217.172l-31.828-31.828l25.613-25.612c5.859-5.859,5.859-15.359,0-21.218s-15.359-5.859-21.218,0l-25.613,25.613    l-31.828-31.828c-5.858-5.859-15.359-5.859-21.218,0s-5.859,15.359,0,21.218l31.827,31.827l-21.219,21.218l-31.827-31.827    c-5.858-5.859-15.359-5.859-21.218,0s-5.859,15.359,0,21.218l31.826,31.826l-31.908,31.907l-31.829-31.829    c-5.858-5.859-15.359-5.859-21.218,0c-5.859,5.859-5.859,15.359,0,21.218l31.829,31.829l-21.219,21.218l-31.828-31.829    c-5.859-5.859-15.36-5.859-21.218,0c-5.859,5.859-5.859,15.359,0,21.218l31.828,31.828l-25.613,25.612    c-5.859,5.859-5.859,15.359,0,21.218c5.858,5.859,15.359,5.859,21.218,0l25.613-25.613l31.828,31.828    c5.86,5.86,15.361,5.857,21.218,0c5.859-5.859,5.859-15.359,0-21.218l-31.827-31.827l21.219-21.218l31.827,31.827    c5.858,5.858,15.359,5.859,21.218,0s5.859-15.359,0-21.218l-31.827-31.827l31.908-31.907l31.829,31.829    c5.858,5.858,15.359,5.859,21.218,0s5.859-15.359,0-21.218l-31.829-31.829l21.218-21.218l31.829,31.829    c5.858,5.858,15.359,5.859,21.218,0C383.716,232.532,383.716,223.031,377.856,217.172z" fill="#909ea0"/>
	</g>
</g>
<g>
	<g>
		<path d="M488.202,23.745c-34.23-34.231-119.849-24.534-168.329-12.916c-2.195,0.524-4.391,1.065-6.588,1.625    c-33.161,8.449-66.389,20.95-96.829,36.487c-39.224,20.019-73.644,44.702-102.306,73.364    C51.421,185.033,23.536,258.348,11.272,306.909l-2.026,8.381C-2.636,366.881-8.518,450.873,26.275,485.667    c35.817,35.817,123.014,28.224,172.062,16.637c48.324-11.346,125.615-38.827,191.299-104.511    c28.728-28.728,53.46-63.17,73.51-102.369c16.529-32.316,29.622-67.748,38.063-102.885    C512.529,145.637,522.963,58.504,488.202,23.745z M47.14,464.8c-14.535-14.535-23.37-59.716-13.688-119.633L166.775,478.49    C106.856,488.169,61.676,479.335,47.14,464.8z M368.771,376.926c-55.973,55.973-121.251,81.959-166.215,93.909L41.106,309.385    c11.95-44.964,37.936-110.242,93.909-166.214c46.101-46.101,111.202-82.303,180.653-100.848l154.106,154.104    C451.215,265.697,414.963,330.734,368.771,376.926z M477.657,160.875L351.243,34.462c19.731-3.425,37.69-4.946,53.363-4.946    c31.467,0,53.74,6.103,62.731,15.095C480.899,58.173,487.973,101.54,477.657,160.875z" fill="#909ea0"/>
	</g>
</g>
<g>
</g>
<g>
</g>
<g>
</g>
<g>
</g>
<g>
</g>
<g>
</g>
<g>
</g>
<g>
</g>
<g>
</g>
<g>
</g>
<g>
</g>
<g>
</g>
<g>
</g>
<g>
</g>
<g>
</g>
</svg>
