<?xml version="1.0" encoding="iso-8859-1"?>
<!-- Generator: Adobe Illustrator 19.0.0, SVG Export Plug-In . SVG Version: 6.00 Build 0)  -->
<svg version="1.1" id="Capa_1" xmlns="http://www.w3.org/2000/svg" xmlns:xlink="http://www.w3.org/1999/xlink" x="0px" y="0px"
	 viewBox="0 0 512 512" style="enable-background:new 0 0 512 512;" xml:space="preserve">
<path style="fill:#87E694;" d="M477.84,35.221C449.791,7.172,408.853-4.163,362.574,3.301
	c-44.487,7.176-88.927,31.067-125.134,67.274s-60.099,80.647-67.274,125.134c-2.649,16.421-1.26,58.724-1.313,64.262
	c-0.306,31.406-0.507,52.155-38.763,86.865l35.732,35.733c34.712-38.256,55.459-38.458,86.866-38.763
	c4.943-0.048,55.375,0.589,64.666-0.909c44.487-7.176,88.927-31.067,125.134-67.274s60.099-80.647,67.274-125.134
	C517.226,104.207,505.889,63.27,477.84,35.221z M480.146,145.712c-6.18,38.312-27.087,76.915-58.87,108.699
	c-31.784,31.784-70.387,52.691-108.699,58.87c-36.516,5.889-68.223-2.462-89.278-23.517c-21.055-21.056-29.407-52.762-23.517-89.278
	c6.18-38.312,27.086-76.915,58.87-108.699s70.387-52.691,108.699-58.87c7.638-1.232,15.062-1.841,22.228-1.841
	c27.085,0,50.4,8.707,67.052,25.357C477.683,77.488,486.035,109.194,480.146,145.712z"/>
<circle style="fill:#FFEA84;" cx="59.996" cy="60.094" r="59.996"/>
<path style="fill:#FFDC40;" d="M102.419,17.667l-84.848,84.848l0,0c23.43,23.43,61.417,23.43,84.848,0S125.85,41.097,102.419,17.667
	z"/>
<path style="fill:#66CC70;" d="M477.84,35.221l-21.212,21.212c21.055,21.056,29.406,52.762,23.517,89.278
	c-6.18,38.312-27.087,76.915-58.87,108.699c-31.784,31.784-70.387,52.691-108.699,58.87c-36.516,5.889-68.223-2.462-89.278-23.517
	l-75.141,75.141l17.664,17.665c34.712-38.256,55.459-38.458,86.866-38.763c4.943-0.048,55.375,0.589,64.666-0.909
	c44.487-7.176,88.927-31.067,125.134-67.274s60.099-80.647,67.274-125.134C517.226,104.207,505.889,63.27,477.84,35.221z"/>
<path style="fill:#0A4EAF;" d="M64.795,511.902L1.159,448.266l93.454-93.453c8.498-8.499,19.798-13.18,31.817-13.18
	s23.319,4.681,31.818,13.18c8.499,8.498,13.18,19.799,13.18,31.818c0,12.019-4.681,23.319-13.18,31.818L64.795,511.902z"/>
<path style="fill:#063E8B;" d="M158.249,354.813L32.977,480.084l31.818,31.818l93.453-93.453c8.499-8.499,13.18-19.799,13.18-31.818
	C171.428,374.612,166.747,363.312,158.249,354.813L158.249,354.813z"/>
<g>
</g>
<g>
</g>
<g>
</g>
<g>
</g>
<g>
</g>
<g>
</g>
<g>
</g>
<g>
</g>
<g>
</g>
<g>
</g>
<g>
</g>
<g>
</g>
<g>
</g>
<g>
</g>
<g>
</g>
</svg>
